<svg xmlns="http://www.w3.org/2000/svg" xmlns:xlink="http://www.w3.org/1999/xlink" viewBox="0 0 229.1 234.95"><defs><style>.cls-1{stroke:#6e78b3;stroke-miterlimit:10;stroke-width:2.4px;fill:url(#linear-gradient);}.cls-2{fill:#40406b;}.cls-3{fill:#282844;}.cls-4{fill:#28bbff;}.cls-5{fill:#6e78b3;}</style><linearGradient id="linear-gradient" x1="1.2" y1="117.48" x2="227.91" y2="117.48" gradientTransform="translate(-2.93 232.03) rotate(-90)" gradientUnits="userSpaceOnUse"><stop offset="0" stop-color="#43466e"/><stop offset="1" stop-color="#585e81"/></linearGradient></defs><g id="Слой_2" data-name="Слой 2"><g id="Objects"><rect class="cls-1" x="-1.73" y="4.12" width="232.56" height="226.71" rx="14.83" transform="translate(232.03 2.93) rotate(90)"/><rect class="cls-2" x="12.88" y="16.77" width="203.35" height="210.71" rx="10.4" transform="translate(236.67 7.57) rotate(90)"/><rect class="cls-3" x="11.2" y="22.45" width="206.71" height="199.15" rx="8.4"/><path class="cls-3" d="M195.88,15.86h-1.75a.72.72,0,0,1-.68-1l2.77-7.65a.71.71,0,0,1,.68-.48h1.75a.73.73,0,0,1,.68,1l-2.77,7.65A.72.72,0,0,1,195.88,15.86Z"/><path class="cls-3" d="M201.59,15.86h-1.75a.72.72,0,0,1-.68-1l2.77-7.65a.71.71,0,0,1,.68-.48h1.75a.73.73,0,0,1,.68,1l-2.77,7.65A.72.72,0,0,1,201.59,15.86Z"/><path class="cls-3" d="M207.3,15.86h-1.75a.72.72,0,0,1-.68-1l2.77-7.65a.71.71,0,0,1,.68-.48h1.75a.73.73,0,0,1,.68,1L208,15.39A.72.72,0,0,1,207.3,15.86Z"/><path class="cls-3" d="M33.22,15.86H35a.72.72,0,0,0,.68-1L32.89,7.25a.73.73,0,0,0-.68-.48H30.45a.73.73,0,0,0-.68,1l2.77,7.65A.73.73,0,0,0,33.22,15.86Z"/><path class="cls-3" d="M27.51,15.86h1.75a.72.72,0,0,0,.68-1L27.18,7.25a.73.73,0,0,0-.68-.48H24.74a.73.73,0,0,0-.68,1l2.77,7.65A.73.73,0,0,0,27.51,15.86Z"/><path class="cls-3" d="M21.8,15.86h1.75a.72.72,0,0,0,.68-1L21.47,7.25a.73.73,0,0,0-.68-.48H19a.73.73,0,0,0-.68,1l2.77,7.65A.73.73,0,0,0,21.8,15.86Z"/><path class="cls-3" d="M218.17,14.35a1,1,0,0,1-1.9,0,.95.95,0,1,1,1.9,0Z"/><path class="cls-4" d="M218,14.35a.79.79,0,0,1-.79.79.79.79,0,1,1,0-1.58A.79.79,0,0,1,218,14.35Z"/><path class="cls-3" d="M12.84,14.35a1,1,0,1,1-.95-.95A1,1,0,0,1,12.84,14.35Z"/><path class="cls-4" d="M12.68,14.35a.8.8,0,1,1-.79-.79A.79.79,0,0,1,12.68,14.35Z"/><path class="cls-5" d="M43.17,9.77a34.61,34.61,0,0,1,9.08-.07,1.36,1.36,0,0,1,1.14,1.35v2.61A1.37,1.37,0,0,1,52.08,15c-2,.08-5.94.19-8.83,0A1.37,1.37,0,0,1,42,13.7V11.13A1.36,1.36,0,0,1,43.17,9.77Z"/><path class="cls-5" d="M58.85,9.77a34.6,34.6,0,0,1,9.08-.07,1.36,1.36,0,0,1,1.14,1.35v2.61A1.37,1.37,0,0,1,67.75,15c-2,.08-5.93.19-8.82,0a1.37,1.37,0,0,1-1.28-1.37V11.13A1.36,1.36,0,0,1,58.85,9.77Z"/><path class="cls-5" d="M161.24,9.77a34.53,34.53,0,0,1,9.07-.07,1.36,1.36,0,0,1,1.14,1.35v2.61A1.36,1.36,0,0,1,170.14,15c-2,.08-5.94.19-8.82,0A1.37,1.37,0,0,1,160,13.7V11.13A1.36,1.36,0,0,1,161.24,9.77Z"/><path class="cls-5" d="M176.92,9.77A34.52,34.52,0,0,1,186,9.7a1.36,1.36,0,0,1,1.14,1.35v2.61A1.37,1.37,0,0,1,185.82,15c-2,.08-5.94.19-8.82,0a1.37,1.37,0,0,1-1.29-1.37V11.13A1.36,1.36,0,0,1,176.92,9.77Z"/></g></g></svg>